<?xml version="1.0" encoding="utf-8"?>
<svg version="1.1" xmlns:xlink="http://www.w3.org/1999/xlink" width="14px" height="14px" viewBox="28 138  14 14" xmlns="http://www.w3.org/2000/svg">
  <path d="M 28.5 141  A 2.5 2.5 0 0 1 31 138.5 L 39 138.5  A 2.5 2.5 0 0 1 41.5 141 L 41.5 149  A 2.5 2.5 0 0 1 39 151.5 L 31 151.5  A 2.5 2.5 0 0 1 28.5 149 L 28.5 141  Z " fill-rule="nonzero" fill="#f0f0f0" stroke="none" />
  <path d="M 28.5 141  A 2.5 2.5 0 0 1 31 138.5 L 39 138.5  A 2.5 2.5 0 0 1 41.5 141 L 41.5 149  A 2.5 2.5 0 0 1 39 151.5 L 31 151.5  A 2.5 2.5 0 0 1 28.5 149 L 28.5 141  Z " stroke-width="1" stroke="#797979" fill="none" />
  <path d="M 31 145  L 34 148  L 39 141  " stroke-width="3" stroke="#797979" fill="none" />
</svg>