<?xml version="1.0" encoding="utf-8"?>
<svg version="1.1" xmlns:xlink="http://www.w3.org/1999/xlink" width="14px" height="14px" viewBox="28 168  14 14" xmlns="http://www.w3.org/2000/svg">
  <path d="M 28.5 171  A 2.5 2.5 0 0 1 31 168.5 L 39 168.5  A 2.5 2.5 0 0 1 41.5 171 L 41.5 179  A 2.5 2.5 0 0 1 39 181.5 L 31 181.5  A 2.5 2.5 0 0 1 28.5 179 L 28.5 171  Z " fill-rule="nonzero" fill="#ffffff" stroke="none" />
  <path d="M 28.5 171  A 2.5 2.5 0 0 1 31 168.5 L 39 168.5  A 2.5 2.5 0 0 1 41.5 171 L 41.5 179  A 2.5 2.5 0 0 1 39 181.5 L 31 181.5  A 2.5 2.5 0 0 1 28.5 179 L 28.5 171  Z " stroke-width="1" stroke="#797979" fill="none" />
  <path d="M 31 175  L 34 178  L 39 171  " stroke-width="3" stroke="#797979" fill="none" />
</svg>