<?xml version="1.0" encoding="utf-8"?>
<svg version="1.1" xmlns:xlink="http://www.w3.org/1999/xlink" width="14px" height="14px" viewBox="28 198  14 14" xmlns="http://www.w3.org/2000/svg">
  <path d="M 28.5 201  A 2.5 2.5 0 0 1 31 198.5 L 39 198.5  A 2.5 2.5 0 0 1 41.5 201 L 41.5 209  A 2.5 2.5 0 0 1 39 211.5 L 31 211.5  A 2.5 2.5 0 0 1 28.5 209 L 28.5 201  Z " fill-rule="nonzero" fill="#f0f0f0" stroke="none" />
  <path d="M 28.5 201  A 2.5 2.5 0 0 1 31 198.5 L 39 198.5  A 2.5 2.5 0 0 1 41.5 201 L 41.5 209  A 2.5 2.5 0 0 1 39 211.5 L 31 211.5  A 2.5 2.5 0 0 1 28.5 209 L 28.5 201  Z " stroke-width="1" stroke="#797979" fill="none" />
</svg>