<?xml version="1.0" encoding="utf-8"?>
<svg version="1.1" xmlns:xlink="http://www.w3.org/1999/xlink" width="14px" height="14px" viewBox="28 288  14 14" xmlns="http://www.w3.org/2000/svg">
  <path d="M 28.5 291  A 2.5 2.5 0 0 1 31 288.5 L 39 288.5  A 2.5 2.5 0 0 1 41.5 291 L 41.5 299  A 2.5 2.5 0 0 1 39 301.5 L 31 301.5  A 2.5 2.5 0 0 1 28.5 299 L 28.5 291  Z " fill-rule="nonzero" fill="#f0f0f0" stroke="none" />
  <path d="M 28.5 291  A 2.5 2.5 0 0 1 31 288.5 L 39 288.5  A 2.5 2.5 0 0 1 41.5 291 L 41.5 299  A 2.5 2.5 0 0 1 39 301.5 L 31 301.5  A 2.5 2.5 0 0 1 28.5 299 L 28.5 291  Z " stroke-width="1" stroke="#797979" fill="none" />
  <path d="M 31 295  L 34 298  L 39 291  " stroke-width="3" stroke="#797979" fill="none" />
</svg>