<?xml version="1.0" encoding="utf-8"?>
<svg version="1.1" xmlns:xlink="http://www.w3.org/1999/xlink" width="10px" height="10px" xmlns="http://www.w3.org/2000/svg">
  <g transform="matrix(1 0 0 1 -425 -87 )">
    <path d="M 9.60286458333333 3.05989583333333  C 9.86762152777778 3.67621527777778  10 4.32291666666667  10 5  C 10 5.67708333333333  9.86762152777778 6.32378472222222  9.60286458333333 6.94010416666667  C 9.33810763888889 7.55642361111111  8.98220486111111 8.08810763888889  8.53515625 8.53515625  C 8.08810763888889 8.98220486111111  7.55642361111111 9.33810763888889  6.94010416666667 9.60286458333333  C 6.32378472222222 9.86762152777778  5.67708333333333 10  5 10  C 4.25347222222222 10  3.54383680555556 9.84266493055556  2.87109375 9.52799479166667  C 2.19835069444444 9.21332465277778  1.62543402777778 8.76953125  1.15234375 8.19661458333333  C 1.12196180555556 8.15321180555556  1.10785590277778 8.10438368055556  1.11002604166667 8.05013020833333  C 1.11219618055556 7.99587673611111  1.13064236111111 7.95138888888889  1.16536458333333 7.91666666666667  L 2.05729166666667 7.01822916666667  C 2.10069444444444 6.97916666666667  2.15494791666667 6.95963541666667  2.22005208333333 6.95963541666667  C 2.28949652777778 6.96831597222222  2.33940972222222 6.99435763888889  2.36979166666667 7.03776041666667  C 2.68663194444444 7.45008680555556  3.07508680555556 7.76909722222222  3.53515625 7.99479166666667  C 3.99522569444444 8.22048611111111  4.48350694444444 8.33333333333333  5 8.33333333333333  C 5.45138888888889 8.33333333333333  5.88216145833333 8.24544270833333  6.29231770833333 8.06966145833333  C 6.70247395833333 7.89388020833333  7.05729166666667 7.65625  7.35677083333333 7.35677083333333  C 7.65625 7.05729166666667  7.89388020833333 6.70247395833333  8.06966145833333 6.29231770833333  C 8.24544270833333 5.88216145833333  8.33333333333333 5.45138888888889  8.33333333333333 5  C 8.33333333333333 4.54861111111111  8.24544270833333 4.11783854166667  8.06966145833333 3.70768229166667  C 7.89388020833333 3.29752604166667  7.65625 2.94270833333333  7.35677083333333 2.64322916666667  C 7.05729166666667 2.34375  6.70247395833333 2.10611979166667  6.29231770833333 1.93033854166667  C 5.88216145833333 1.75455729166667  5.45138888888889 1.66666666666667  5 1.66666666666667  C 4.57465277777778 1.66666666666667  4.16666666666667 1.74370659722222  3.77604166666667 1.89778645833333  C 3.38541666666667 2.05186631944444  3.03819444444444 2.27213541666667  2.734375 2.55859375  L 3.62630208333333 3.45703125  C 3.76085069444444 3.58723958333333  3.79123263888889 3.73697916666667  3.71744791666667 3.90625  C 3.64366319444444 4.07986111111111  3.515625 4.16666666666667  3.33333333333333 4.16666666666667  L 0.416666666666667 4.16666666666667  C 0.303819444444444 4.16666666666667  0.206163194444444 4.12543402777778  0.123697916666667 4.04296875  C 0.0412326388888889 3.96050347222222  0 3.86284722222222  0 3.75  L 0 0.833333333333334  C 0 0.651041666666666  0.0868055555555555 0.523003472222222  0.260416666666667 0.44921875  C 0.4296875 0.375434027777777  0.579427083333333 0.405815972222222  0.709635416666667 0.540364583333334  L 1.55598958333333 1.38020833333333  C 2.02039930555556 0.941840277777777  2.55099826388889 0.602213541666666  3.14778645833333 0.361328125  C 3.74457465277778 0.120442708333334  4.36197916666667 0  5 0  C 5.67708333333333 0  6.32378472222222 0.132378472222222  6.94010416666667 0.397135416666666  C 7.55642361111111 0.66189236111111  8.08810763888889 1.01779513888889  8.53515625 1.46484375  C 8.98220486111111 1.91189236111111  9.33810763888889 2.44357638888889  9.60286458333333 3.05989583333333  Z " fill-rule="nonzero" fill="#1e5df8" stroke="none" transform="matrix(1 0 0 1 425 87 )" />
  </g>
</svg>