<?xml version="1.0" encoding="utf-8"?>
<svg version="1.1" xmlns:xlink="http://www.w3.org/1999/xlink" width="10px" height="10px" xmlns="http://www.w3.org/2000/svg">
  <defs>
    <mask fill="white" id="clip21">
      <path d="M 9.53257790368272 0  C 9.73087818696884 0  9.87016052880076 0.0923295454545459  9.95042492917847 0.276988636363636  C 10.0306893295562 0.471117424242423  9.99763928234183 0.63683712121212  9.85127478753541 0.774147727272727  L 6.35977337110482 4.27556818181818  L 6.35977337110482 9.54545454545455  C 6.35977337110482 9.74431818181818  6.26770538243626 9.88399621212121  6.08356940509915 9.96448863636364  C 6.02219074598678 9.98816287878788  5.96317280453258 10  5.90651558073654 10  C 5.77903682719547 10  5.6728045325779 9.95501893939394  5.58781869688385 9.86505681818182  L 3.77478753541076 8.046875  C 3.68508026440038 7.95691287878788  3.64022662889518 7.85037878787879  3.64022662889518 7.72727272727273  L 3.64022662889518 4.27556818181818  L 0.148725212464589 0.774147727272727  C 0.00236071765816808 0.63683712121212  -0.0306893295561851 0.471117424242423  0.0495750708215297 0.276988636363636  C 0.129839471199245 0.0923295454545459  0.269121813031161 0  0.46742209631728 0  L 9.53257790368272 0  Z " fill-rule="evenodd" />
    </mask>
  </defs>
  <g transform="matrix(1 0 0 1 -40 -47 )">
    <path d="M 9.53257790368272 0  C 9.73087818696884 0  9.87016052880076 0.0923295454545459  9.95042492917847 0.276988636363636  C 10.0306893295562 0.471117424242423  9.99763928234183 0.63683712121212  9.85127478753541 0.774147727272727  L 6.35977337110482 4.27556818181818  L 6.35977337110482 9.54545454545455  C 6.35977337110482 9.74431818181818  6.26770538243626 9.88399621212121  6.08356940509915 9.96448863636364  C 6.02219074598678 9.98816287878788  5.96317280453258 10  5.90651558073654 10  C 5.77903682719547 10  5.6728045325779 9.95501893939394  5.58781869688385 9.86505681818182  L 3.77478753541076 8.046875  C 3.68508026440038 7.95691287878788  3.64022662889518 7.85037878787879  3.64022662889518 7.72727272727273  L 3.64022662889518 4.27556818181818  L 0.148725212464589 0.774147727272727  C 0.00236071765816808 0.63683712121212  -0.0306893295561851 0.471117424242423  0.0495750708215297 0.276988636363636  C 0.129839471199245 0.0923295454545459  0.269121813031161 0  0.46742209631728 0  L 9.53257790368272 0  Z " fill-rule="nonzero" fill="#ffffff" stroke="none" transform="matrix(1 0 0 1 40 47 )" />
    <path d="M 9.53257790368272 0  C 9.73087818696884 0  9.87016052880076 0.0923295454545459  9.95042492917847 0.276988636363636  C 10.0306893295562 0.471117424242423  9.99763928234183 0.63683712121212  9.85127478753541 0.774147727272727  L 6.35977337110482 4.27556818181818  L 6.35977337110482 9.54545454545455  C 6.35977337110482 9.74431818181818  6.26770538243626 9.88399621212121  6.08356940509915 9.96448863636364  C 6.02219074598678 9.98816287878788  5.96317280453258 10  5.90651558073654 10  C 5.77903682719547 10  5.6728045325779 9.95501893939394  5.58781869688385 9.86505681818182  L 3.77478753541076 8.046875  C 3.68508026440038 7.95691287878788  3.64022662889518 7.85037878787879  3.64022662889518 7.72727272727273  L 3.64022662889518 4.27556818181818  L 0.148725212464589 0.774147727272727  C 0.00236071765816808 0.63683712121212  -0.0306893295561851 0.471117424242423  0.0495750708215297 0.276988636363636  C 0.129839471199245 0.0923295454545459  0.269121813031161 0  0.46742209631728 0  L 9.53257790368272 0  Z " stroke-width="2" stroke="#333333" fill="none" transform="matrix(1 0 0 1 40 47 )" mask="url(#clip21)" />
  </g>
</svg>