<?xml version="1.0" encoding="utf-8"?>
<svg version="1.1" xmlns:xlink="http://www.w3.org/1999/xlink" width="8px" height="8px" xmlns="http://www.w3.org/2000/svg">
  <g transform="matrix(1 0 0 1 -10 -271 )">
    <path d="M 7.68229166666667 2.44791666666667  C 7.89409722222222 2.94097222222222  8 3.45833333333333  8 4  C 8 4.54166666666667  7.89409722222222 5.05902777777778  7.68229166666667 5.55208333333333  C 7.47048611111111 6.04513888888889  7.18576388888889 6.47048611111111  6.828125 6.828125  C 6.47048611111111 7.18576388888889  6.04513888888889 7.47048611111111  5.55208333333333 7.68229166666667  C 5.05902777777778 7.89409722222222  4.54166666666667 8  4 8  C 3.40277777777778 8  2.83506944444444 7.87413194444444  2.296875 7.62239583333333  C 1.75868055555556 7.37065972222222  1.30034722222222 7.015625  0.921875 6.55729166666667  C 0.897569444444445 6.52256944444444  0.886284722222222 6.48350694444444  0.888020833333333 6.44010416666667  C 0.889756944444445 6.39670138888889  0.904513888888889 6.36111111111111  0.932291666666667 6.33333333333333  L 1.64583333333333 5.61458333333333  C 1.68055555555556 5.58333333333333  1.72395833333333 5.56770833333333  1.77604166666667 5.56770833333333  C 1.83159722222222 5.57465277777778  1.87152777777778 5.59548611111111  1.89583333333333 5.63020833333333  C 2.14930555555556 5.96006944444444  2.46006944444444 6.21527777777778  2.828125 6.39583333333333  C 3.19618055555556 6.57638888888889  3.58680555555556 6.66666666666667  4 6.66666666666667  C 4.36111111111111 6.66666666666667  4.70572916666667 6.59635416666667  5.03385416666667 6.45572916666667  C 5.36197916666667 6.31510416666667  5.64583333333333 6.125  5.88541666666667 5.88541666666667  C 6.125 5.64583333333333  6.31510416666667 5.36197916666667  6.45572916666667 5.03385416666667  C 6.59635416666667 4.70572916666667  6.66666666666667 4.36111111111111  6.66666666666667 4  C 6.66666666666667 3.63888888888889  6.59635416666667 3.29427083333333  6.45572916666667 2.96614583333333  C 6.31510416666667 2.63802083333333  6.125 2.35416666666667  5.88541666666667 2.11458333333333  C 5.64583333333333 1.875  5.36197916666667 1.68489583333333  5.03385416666667 1.54427083333333  C 4.70572916666667 1.40364583333333  4.36111111111111 1.33333333333333  4 1.33333333333333  C 3.65972222222222 1.33333333333333  3.33333333333333 1.39496527777778  3.02083333333333 1.51822916666667  C 2.70833333333333 1.64149305555555  2.43055555555556 1.81770833333333  2.1875 2.046875  L 2.90104166666667 2.765625  C 3.00868055555556 2.86979166666667  3.03298611111111 2.98958333333333  2.97395833333333 3.125  C 2.91493055555556 3.26388888888889  2.8125 3.33333333333333  2.66666666666667 3.33333333333333  L 0.333333333333333 3.33333333333333  C 0.243055555555556 3.33333333333333  0.164930555555556 3.30034722222222  0.0989583333333333 3.234375  C 0.0329861111111111 3.16840277777778  0 3.09027777777778  0 3  L 0 0.666666666666667  C 0 0.520833333333333  0.0694444444444444 0.418402777777778  0.208333333333333 0.359375  C 0.34375 0.300347222222221  0.463541666666667 0.324652777777778  0.567708333333333 0.432291666666667  L 1.24479166666667 1.10416666666667  C 1.61631944444444 0.753472222222221  2.04079861111111 0.481770833333333  2.51822916666667 0.2890625  C 2.99565972222222 0.096354166666667  3.48958333333333 0  4 0  C 4.54166666666667 0  5.05902777777778 0.105902777777778  5.55208333333333 0.317708333333333  C 6.04513888888889 0.529513888888888  6.47048611111111 0.814236111111111  6.828125 1.171875  C 7.18576388888889 1.52951388888889  7.47048611111111 1.95486111111111  7.68229166666667 2.44791666666667  Z " fill-rule="nonzero" fill="#333333" stroke="none" transform="matrix(1 0 0 1 10 271 )" />
  </g>
</svg>