<?xml version="1.0" encoding="utf-8"?>
<svg version="1.1" xmlns:xlink="http://www.w3.org/1999/xlink" width="14px" height="14px" viewBox="58 308  14 14" xmlns="http://www.w3.org/2000/svg">
  <path d="M 58.5 311  A 2.5 2.5 0 0 1 61 308.5 L 69 308.5  A 2.5 2.5 0 0 1 71.5 311 L 71.5 319  A 2.5 2.5 0 0 1 69 321.5 L 61 321.5  A 2.5 2.5 0 0 1 58.5 319 L 58.5 311  Z " fill-rule="nonzero" fill="#ffffff" stroke="none" />
  <path d="M 58.5 311  A 2.5 2.5 0 0 1 61 308.5 L 69 308.5  A 2.5 2.5 0 0 1 71.5 311 L 71.5 319  A 2.5 2.5 0 0 1 69 321.5 L 61 321.5  A 2.5 2.5 0 0 1 58.5 319 L 58.5 311  Z " stroke-width="1" stroke="#797979" fill="none" />
</svg>