<?xml version="1.0" encoding="utf-8"?>
<svg version="1.1" xmlns:xlink="http://www.w3.org/1999/xlink" width="14px" height="14px" viewBox="58 458  14 14" xmlns="http://www.w3.org/2000/svg">
  <path d="M 58.5 461  A 2.5 2.5 0 0 1 61 458.5 L 69 458.5  A 2.5 2.5 0 0 1 71.5 461 L 71.5 469  A 2.5 2.5 0 0 1 69 471.5 L 61 471.5  A 2.5 2.5 0 0 1 58.5 469 L 58.5 461  Z " fill-rule="nonzero" fill="#ffffff" stroke="none" />
  <path d="M 58.5 461  A 2.5 2.5 0 0 1 61 458.5 L 69 458.5  A 2.5 2.5 0 0 1 71.5 461 L 71.5 469  A 2.5 2.5 0 0 1 69 471.5 L 61 471.5  A 2.5 2.5 0 0 1 58.5 469 L 58.5 461  Z " stroke-width="1" stroke="#797979" fill="none" />
  <path d="M 61 465  L 64 468  L 69 461  " stroke-width="3" stroke="#797979" fill="none" />
</svg>