<?xml version="1.0" encoding="utf-8"?>
<svg version="1.1" xmlns:xlink="http://www.w3.org/1999/xlink" width="14px" height="14px" viewBox="58 188  14 14" xmlns="http://www.w3.org/2000/svg">
  <path d="M 58.5 191  A 2.5 2.5 0 0 1 61 188.5 L 69 188.5  A 2.5 2.5 0 0 1 71.5 191 L 71.5 199  A 2.5 2.5 0 0 1 69 201.5 L 61 201.5  A 2.5 2.5 0 0 1 58.5 199 L 58.5 191  Z " fill-rule="nonzero" fill="#ffffff" stroke="none" />
  <path d="M 58.5 191  A 2.5 2.5 0 0 1 61 188.5 L 69 188.5  A 2.5 2.5 0 0 1 71.5 191 L 71.5 199  A 2.5 2.5 0 0 1 69 201.5 L 61 201.5  A 2.5 2.5 0 0 1 58.5 199 L 58.5 191  Z " stroke-width="1" stroke="#797979" fill="none" />
  <path d="M 61 195  L 64 198  L 69 191  " stroke-width="3" stroke="#797979" fill="none" />
</svg>