<?xml version="1.0" encoding="utf-8"?>
<svg version="1.1" xmlns:xlink="http://www.w3.org/1999/xlink" width="14px" height="14px" viewBox="58 368  14 14" xmlns="http://www.w3.org/2000/svg">
  <path d="M 58.5 371  A 2.5 2.5 0 0 1 61 368.5 L 69 368.5  A 2.5 2.5 0 0 1 71.5 371 L 71.5 379  A 2.5 2.5 0 0 1 69 381.5 L 61 381.5  A 2.5 2.5 0 0 1 58.5 379 L 58.5 371  Z " fill-rule="nonzero" fill="#ffffff" stroke="none" />
  <path d="M 58.5 371  A 2.5 2.5 0 0 1 61 368.5 L 69 368.5  A 2.5 2.5 0 0 1 71.5 371 L 71.5 379  A 2.5 2.5 0 0 1 69 381.5 L 61 381.5  A 2.5 2.5 0 0 1 58.5 379 L 58.5 371  Z " stroke-width="1" stroke="#797979" fill="none" />
</svg>