<?xml version="1.0" encoding="utf-8"?>
<svg version="1.1" xmlns:xlink="http://www.w3.org/1999/xlink" width="14px" height="14px" viewBox="58 218  14 14" xmlns="http://www.w3.org/2000/svg">
  <path d="M 58.5 221  A 2.5 2.5 0 0 1 61 218.5 L 69 218.5  A 2.5 2.5 0 0 1 71.5 221 L 71.5 229  A 2.5 2.5 0 0 1 69 231.5 L 61 231.5  A 2.5 2.5 0 0 1 58.5 229 L 58.5 221  Z " fill-rule="nonzero" fill="#ffffff" stroke="none" />
  <path d="M 58.5 221  A 2.5 2.5 0 0 1 61 218.5 L 69 218.5  A 2.5 2.5 0 0 1 71.5 221 L 71.5 229  A 2.5 2.5 0 0 1 69 231.5 L 61 231.5  A 2.5 2.5 0 0 1 58.5 229 L 58.5 221  Z " stroke-width="1" stroke="#797979" fill="none" />
</svg>