<?xml version="1.0" encoding="utf-8"?>
<svg version="1.1" xmlns:xlink="http://www.w3.org/1999/xlink" width="14px" height="14px" viewBox="58 727  14 14" xmlns="http://www.w3.org/2000/svg">
  <path d="M 58.5 730  A 2.5 2.5 0 0 1 61 727.5 L 69 727.5  A 2.5 2.5 0 0 1 71.5 730 L 71.5 738  A 2.5 2.5 0 0 1 69 740.5 L 61 740.5  A 2.5 2.5 0 0 1 58.5 738 L 58.5 730  Z " fill-rule="nonzero" fill="#f0f0f0" stroke="none" />
  <path d="M 58.5 730  A 2.5 2.5 0 0 1 61 727.5 L 69 727.5  A 2.5 2.5 0 0 1 71.5 730 L 71.5 738  A 2.5 2.5 0 0 1 69 740.5 L 61 740.5  A 2.5 2.5 0 0 1 58.5 738 L 58.5 730  Z " stroke-width="1" stroke="#797979" fill="none" />
</svg>