<?xml version="1.0" encoding="utf-8"?>
<svg version="1.1" xmlns:xlink="http://www.w3.org/1999/xlink" width="14px" height="14px" viewBox="58 607  14 14" xmlns="http://www.w3.org/2000/svg">
  <path d="M 58.5 610  A 2.5 2.5 0 0 1 61 607.5 L 69 607.5  A 2.5 2.5 0 0 1 71.5 610 L 71.5 618  A 2.5 2.5 0 0 1 69 620.5 L 61 620.5  A 2.5 2.5 0 0 1 58.5 618 L 58.5 610  Z " fill-rule="nonzero" fill="#f0f0f0" stroke="none" />
  <path d="M 58.5 610  A 2.5 2.5 0 0 1 61 607.5 L 69 607.5  A 2.5 2.5 0 0 1 71.5 610 L 71.5 618  A 2.5 2.5 0 0 1 69 620.5 L 61 620.5  A 2.5 2.5 0 0 1 58.5 618 L 58.5 610  Z " stroke-width="1" stroke="#797979" fill="none" />
  <path d="M 61 614  L 64 617  L 69 610  " stroke-width="3" stroke="#797979" fill="none" />
</svg>