<?xml version="1.0" encoding="utf-8"?>
<svg version="1.1" xmlns:xlink="http://www.w3.org/1999/xlink" width="14px" height="14px" viewBox="58 637  14 14" xmlns="http://www.w3.org/2000/svg">
  <path d="M 58.5 640  A 2.5 2.5 0 0 1 61 637.5 L 69 637.5  A 2.5 2.5 0 0 1 71.5 640 L 71.5 648  A 2.5 2.5 0 0 1 69 650.5 L 61 650.5  A 2.5 2.5 0 0 1 58.5 648 L 58.5 640  Z " fill-rule="nonzero" fill="#ffffff" stroke="none" />
  <path d="M 58.5 640  A 2.5 2.5 0 0 1 61 637.5 L 69 637.5  A 2.5 2.5 0 0 1 71.5 640 L 71.5 648  A 2.5 2.5 0 0 1 69 650.5 L 61 650.5  A 2.5 2.5 0 0 1 58.5 648 L 58.5 640  Z " stroke-width="1" stroke="#797979" fill="none" />
  <path d="M 61 644  L 64 647  L 69 640  " stroke-width="3" stroke="#797979" fill="none" />
</svg>