<?xml version="1.0" encoding="utf-8"?>
<svg version="1.1" xmlns:xlink="http://www.w3.org/1999/xlink" width="6px" height="5px" xmlns="http://www.w3.org/2000/svg">
  <g transform="matrix(1 0 0 1 -11 -102 )">
    <path d="M 5.89161290322581 0.69023569023569  C 5.96387096774194 0.768799102132435  6 0.864197530864197  6 0.976430976430976  C 6 1.08866442199775  5.96387096774194 1.18406285072952  5.89161290322581 1.26262626262626  L 3.08903225806452 4.30976430976431  L 2.56258064516129 4.88215488215488  C 2.49032258064516 4.96071829405163  2.40258064516129 5  2.29935483870968 5  C 2.19612903225806 5  2.10838709677419 4.96071829405163  2.03612903225806 4.88215488215488  L 1.50967741935484 4.30976430976431  L 0.108387096774194 2.78619528619529  C 0.0361290322580646 2.70763187429854  0 2.61223344556678  0 2.5  C 0 2.38776655443322  0.0361290322580646 2.29236812570146  0.108387096774194 2.21380471380471  L 0.634838709677419 1.64141414141414  C 0.707096774193548 1.5628507295174  0.79483870967742 1.52356902356902  0.898064516129032 1.52356902356902  C 1.00129032258065 1.52356902356902  1.08903225806452 1.5628507295174  1.16129032258065 1.64141414141414  L 2.29935483870968 2.88299663299663  L 4.83870967741935 0.117845117845118  C 4.91096774193548 0.0392817059483724  4.99870967741936 0  5.10193548387097 0  C 5.20516129032258 0  5.29290322580645 0.0392817059483724  5.36516129032258 0.117845117845118  L 5.89161290322581 0.69023569023569  Z " fill-rule="nonzero" fill="#1e5df8" stroke="none" transform="matrix(1 0 0 1 11 102 )" />
  </g>
</svg>