<?xml version="1.0" encoding="utf-8"?>
<svg version="1.1" xmlns:xlink="http://www.w3.org/1999/xlink" width="14px" height="14px" viewBox="58 518  14 14" xmlns="http://www.w3.org/2000/svg">
  <path d="M 58.5 521  A 2.5 2.5 0 0 1 61 518.5 L 69 518.5  A 2.5 2.5 0 0 1 71.5 521 L 71.5 529  A 2.5 2.5 0 0 1 69 531.5 L 61 531.5  A 2.5 2.5 0 0 1 58.5 529 L 58.5 521  Z " fill-rule="nonzero" fill="#ffffff" stroke="none" />
  <path d="M 58.5 521  A 2.5 2.5 0 0 1 61 518.5 L 69 518.5  A 2.5 2.5 0 0 1 71.5 521 L 71.5 529  A 2.5 2.5 0 0 1 69 531.5 L 61 531.5  A 2.5 2.5 0 0 1 58.5 529 L 58.5 521  Z " stroke-width="1" stroke="#797979" fill="none" />
</svg>