<?xml version="1.0" encoding="utf-8"?>
<svg version="1.1" xmlns:xlink="http://www.w3.org/1999/xlink" width="14px" height="14px" viewBox="58 577  14 14" xmlns="http://www.w3.org/2000/svg">
  <path d="M 58.5 580  A 2.5 2.5 0 0 1 61 577.5 L 69 577.5  A 2.5 2.5 0 0 1 71.5 580 L 71.5 588  A 2.5 2.5 0 0 1 69 590.5 L 61 590.5  A 2.5 2.5 0 0 1 58.5 588 L 58.5 580  Z " fill-rule="nonzero" fill="#ffffff" stroke="none" />
  <path d="M 58.5 580  A 2.5 2.5 0 0 1 61 577.5 L 69 577.5  A 2.5 2.5 0 0 1 71.5 580 L 71.5 588  A 2.5 2.5 0 0 1 69 590.5 L 61 590.5  A 2.5 2.5 0 0 1 58.5 588 L 58.5 580  Z " stroke-width="1" stroke="#797979" fill="none" />
</svg>