<?xml version="1.0" encoding="utf-8"?>
<svg version="1.1" xmlns:xlink="http://www.w3.org/1999/xlink" width="14px" height="14px" viewBox="58 667  14 14" xmlns="http://www.w3.org/2000/svg">
  <path d="M 58.5 670  A 2.5 2.5 0 0 1 61 667.5 L 69 667.5  A 2.5 2.5 0 0 1 71.5 670 L 71.5 678  A 2.5 2.5 0 0 1 69 680.5 L 61 680.5  A 2.5 2.5 0 0 1 58.5 678 L 58.5 670  Z " fill-rule="nonzero" fill="#f0f0f0" stroke="none" />
  <path d="M 58.5 670  A 2.5 2.5 0 0 1 61 667.5 L 69 667.5  A 2.5 2.5 0 0 1 71.5 670 L 71.5 678  A 2.5 2.5 0 0 1 69 680.5 L 61 680.5  A 2.5 2.5 0 0 1 58.5 678 L 58.5 670  Z " stroke-width="1" stroke="#797979" fill="none" />
</svg>