<?xml version="1.0" encoding="utf-8"?>
<svg version="1.1" xmlns:xlink="http://www.w3.org/1999/xlink" width="14px" height="14px" viewBox="58 757  14 14" xmlns="http://www.w3.org/2000/svg">
  <path d="M 58.5 760  A 2.5 2.5 0 0 1 61 757.5 L 69 757.5  A 2.5 2.5 0 0 1 71.5 760 L 71.5 768  A 2.5 2.5 0 0 1 69 770.5 L 61 770.5  A 2.5 2.5 0 0 1 58.5 768 L 58.5 760  Z " fill-rule="nonzero" fill="#ffffff" stroke="none" />
  <path d="M 58.5 760  A 2.5 2.5 0 0 1 61 757.5 L 69 757.5  A 2.5 2.5 0 0 1 71.5 760 L 71.5 768  A 2.5 2.5 0 0 1 69 770.5 L 61 770.5  A 2.5 2.5 0 0 1 58.5 768 L 58.5 760  Z " stroke-width="1" stroke="#797979" fill="none" />
  <path d="M 61 764  L 64 767  L 69 760  " stroke-width="3" stroke="#797979" fill="none" />
</svg>