<?xml version="1.0" encoding="utf-8"?>
<svg version="1.1" xmlns:xlink="http://www.w3.org/1999/xlink" width="11px" height="8px" xmlns="http://www.w3.org/2000/svg">
  <g transform="matrix(1 0 0 1 -107 -48 )">
    <path d="M 10.0833333333333 1.12941176470588  L 0.916666666666667 1.12941176470588  C 0.616 1.12941176470588  0.366666666666667 0.873411764705882  0.366666666666667 0.564705882352942  C 0.366666666666667 0.256000000000001  0.616 0  0.916666666666667 0  L 10.0833333333333 0  C 10.384 0  10.6333333333333 0.256000000000001  10.6333333333333 0.564705882352942  C 10.6333333333333 0.873411764705882  10.384 1.12941176470588  10.0833333333333 1.12941176470588  Z M 10.0833333333333 3.38823529411765  L 0.916666666666667 3.38823529411765  C 0.616 3.38823529411765  0.366666666666667 3.13223529411765  0.366666666666667 2.82352941176471  C 0.366666666666667 2.51482352941177  0.616 2.25882352941177  0.916666666666667 2.25882352941177  L 10.0833333333333 2.25882352941177  C 10.384 2.25882352941177  10.6333333333333 2.51482352941177  10.6333333333333 2.82352941176471  C 10.6333333333333 3.13223529411765  10.384 3.38823529411765  10.0833333333333 3.38823529411765  Z M 10.0833333333333 5.64705882352941  L 0.916666666666667 5.64705882352941  C 0.616 5.64705882352941  0.366666666666667 5.39105882352941  0.366666666666667 5.08235294117647  C 0.366666666666667 4.77364705882353  0.616 4.51764705882353  0.916666666666667 4.51764705882353  L 10.0833333333333 4.51764705882353  C 10.384 4.51764705882353  10.6333333333333 4.77364705882353  10.6333333333333 5.08235294117647  C 10.6333333333333 5.39105882352941  10.384 5.64705882352941  10.0833333333333 5.64705882352941  Z M 7.15 7.90588235294118  L 0.916666666666667 7.90588235294118  C 0.616 7.90588235294118  0.366666666666667 7.64988235294118  0.366666666666667 7.34117647058824  C 0.366666666666667 7.0324705882353  0.616 6.77647058823529  0.916666666666667 6.77647058823529  L 7.15 6.77647058823529  C 7.45066666666667 6.77647058823529  7.7 7.0324705882353  7.7 7.34117647058824  C 7.7 7.64988235294118  7.45066666666667 7.90588235294118  7.15 7.90588235294118  Z " fill-rule="nonzero" fill="#333333" stroke="none" transform="matrix(1 0 0 1 107 48 )" />
  </g>
</svg>