<?xml version="1.0" encoding="utf-8"?>
<svg version="1.1" xmlns:xlink="http://www.w3.org/1999/xlink" width="14px" height="14px" viewBox="29 1037  14 14" xmlns="http://www.w3.org/2000/svg">
  <path d="M 29.5 1040  A 2.5 2.5 0 0 1 32 1037.5 L 40 1037.5  A 2.5 2.5 0 0 1 42.5 1040 L 42.5 1048  A 2.5 2.5 0 0 1 40 1050.5 L 32 1050.5  A 2.5 2.5 0 0 1 29.5 1048 L 29.5 1040  Z " fill-rule="nonzero" fill="#ffffff" stroke="none" />
  <path d="M 29.5 1040  A 2.5 2.5 0 0 1 32 1037.5 L 40 1037.5  A 2.5 2.5 0 0 1 42.5 1040 L 42.5 1048  A 2.5 2.5 0 0 1 40 1050.5 L 32 1050.5  A 2.5 2.5 0 0 1 29.5 1048 L 29.5 1040  Z " stroke-width="1" stroke="#797979" fill="none" />
</svg>