<?xml version="1.0" encoding="utf-8"?>
<svg version="1.1" xmlns:xlink="http://www.w3.org/1999/xlink" width="14px" height="14px" viewBox="29 1095  14 14" xmlns="http://www.w3.org/2000/svg">
  <path d="M 29.5 1098  A 2.5 2.5 0 0 1 32 1095.5 L 40 1095.5  A 2.5 2.5 0 0 1 42.5 1098 L 42.5 1106  A 2.5 2.5 0 0 1 40 1108.5 L 32 1108.5  A 2.5 2.5 0 0 1 29.5 1106 L 29.5 1098  Z " fill-rule="nonzero" fill="#f0f0f0" stroke="none" />
  <path d="M 29.5 1098  A 2.5 2.5 0 0 1 32 1095.5 L 40 1095.5  A 2.5 2.5 0 0 1 42.5 1098 L 42.5 1106  A 2.5 2.5 0 0 1 40 1108.5 L 32 1108.5  A 2.5 2.5 0 0 1 29.5 1106 L 29.5 1098  Z " stroke-width="1" stroke="#797979" fill="none" />
  <path d="M 32 1102  L 35 1105  L 40 1098  " stroke-width="3" stroke="#797979" fill="none" />
</svg>