<?xml version="1.0" encoding="utf-8"?>
<svg version="1.1" xmlns:xlink="http://www.w3.org/1999/xlink" width="14px" height="14px" viewBox="29 1065  14 14" xmlns="http://www.w3.org/2000/svg">
  <path d="M 29.5 1068  A 2.5 2.5 0 0 1 32 1065.5 L 40 1065.5  A 2.5 2.5 0 0 1 42.5 1068 L 42.5 1076  A 2.5 2.5 0 0 1 40 1078.5 L 32 1078.5  A 2.5 2.5 0 0 1 29.5 1076 L 29.5 1068  Z " fill-rule="nonzero" fill="#ffffff" stroke="none" />
  <path d="M 29.5 1068  A 2.5 2.5 0 0 1 32 1065.5 L 40 1065.5  A 2.5 2.5 0 0 1 42.5 1068 L 42.5 1076  A 2.5 2.5 0 0 1 40 1078.5 L 32 1078.5  A 2.5 2.5 0 0 1 29.5 1076 L 29.5 1068  Z " stroke-width="1" stroke="#797979" fill="none" />
  <path d="M 32 1072  L 35 1075  L 40 1068  " stroke-width="3" stroke="#797979" fill="none" />
</svg>