<?xml version="1.0" encoding="utf-8"?>
<svg version="1.1" xmlns:xlink="http://www.w3.org/1999/xlink" width="14px" height="14px" viewBox="29 1185  14 14" xmlns="http://www.w3.org/2000/svg">
  <path d="M 29.5 1188  A 2.5 2.5 0 0 1 32 1185.5 L 40 1185.5  A 2.5 2.5 0 0 1 42.5 1188 L 42.5 1196  A 2.5 2.5 0 0 1 40 1198.5 L 32 1198.5  A 2.5 2.5 0 0 1 29.5 1196 L 29.5 1188  Z " fill-rule="nonzero" fill="#f0f0f0" stroke="none" />
  <path d="M 29.5 1188  A 2.5 2.5 0 0 1 32 1185.5 L 40 1185.5  A 2.5 2.5 0 0 1 42.5 1188 L 42.5 1196  A 2.5 2.5 0 0 1 40 1198.5 L 32 1198.5  A 2.5 2.5 0 0 1 29.5 1196 L 29.5 1188  Z " stroke-width="1" stroke="#797979" fill="none" />
  <path d="M 32 1192  L 35 1195  L 40 1188  " stroke-width="3" stroke="#797979" fill="none" />
</svg>