<?xml version="1.0" encoding="utf-8"?>
<svg version="1.1" xmlns:xlink="http://www.w3.org/1999/xlink" width="14px" height="14px" viewBox="29 1155  14 14" xmlns="http://www.w3.org/2000/svg">
  <path d="M 29.5 1158  A 2.5 2.5 0 0 1 32 1155.5 L 40 1155.5  A 2.5 2.5 0 0 1 42.5 1158 L 42.5 1166  A 2.5 2.5 0 0 1 40 1168.5 L 32 1168.5  A 2.5 2.5 0 0 1 29.5 1166 L 29.5 1158  Z " fill-rule="nonzero" fill="#f0f0f0" stroke="none" />
  <path d="M 29.5 1158  A 2.5 2.5 0 0 1 32 1155.5 L 40 1155.5  A 2.5 2.5 0 0 1 42.5 1158 L 42.5 1166  A 2.5 2.5 0 0 1 40 1168.5 L 32 1168.5  A 2.5 2.5 0 0 1 29.5 1166 L 29.5 1158  Z " stroke-width="1" stroke="#797979" fill="none" />
  <path d="M 32 1162  L 35 1165  L 40 1158  " stroke-width="3" stroke="#797979" fill="none" />
</svg>