<?xml version="1.0" encoding="utf-8"?>
<svg version="1.1" xmlns:xlink="http://www.w3.org/1999/xlink" width="14px" height="14px" viewBox="58 367  14 14" xmlns="http://www.w3.org/2000/svg">
  <path d="M 58.5 370  A 2.5 2.5 0 0 1 61 367.5 L 69 367.5  A 2.5 2.5 0 0 1 71.5 370 L 71.5 378  A 2.5 2.5 0 0 1 69 380.5 L 61 380.5  A 2.5 2.5 0 0 1 58.5 378 L 58.5 370  Z " fill-rule="nonzero" fill="#f0f0f0" stroke="none" />
  <path d="M 58.5 370  A 2.5 2.5 0 0 1 61 367.5 L 69 367.5  A 2.5 2.5 0 0 1 71.5 370 L 71.5 378  A 2.5 2.5 0 0 1 69 380.5 L 61 380.5  A 2.5 2.5 0 0 1 58.5 378 L 58.5 370  Z " stroke-width="1" stroke="#797979" fill="none" />
  <path d="M 61 374  L 64 377  L 69 370  " stroke-width="3" stroke="#797979" fill="none" />
</svg>