<?xml version="1.0" encoding="utf-8"?>
<svg version="1.1" xmlns:xlink="http://www.w3.org/1999/xlink" width="14px" height="14px" viewBox="28 186  14 14" xmlns="http://www.w3.org/2000/svg">
  <path d="M 28.5 189  A 2.5 2.5 0 0 1 31 186.5 L 39 186.5  A 2.5 2.5 0 0 1 41.5 189 L 41.5 197  A 2.5 2.5 0 0 1 39 199.5 L 31 199.5  A 2.5 2.5 0 0 1 28.5 197 L 28.5 189  Z " fill-rule="nonzero" fill="#f0f0f0" stroke="none" />
  <path d="M 28.5 189  A 2.5 2.5 0 0 1 31 186.5 L 39 186.5  A 2.5 2.5 0 0 1 41.5 189 L 41.5 197  A 2.5 2.5 0 0 1 39 199.5 L 31 199.5  A 2.5 2.5 0 0 1 28.5 197 L 28.5 189  Z " stroke-width="1" stroke="#797979" fill="none" />
</svg>