<?xml version="1.0" encoding="utf-8"?>
<svg version="1.1" xmlns:xlink="http://www.w3.org/1999/xlink" width="14px" height="14px" viewBox="28 276  14 14" xmlns="http://www.w3.org/2000/svg">
  <path d="M 28.5 279  A 2.5 2.5 0 0 1 31 276.5 L 39 276.5  A 2.5 2.5 0 0 1 41.5 279 L 41.5 287  A 2.5 2.5 0 0 1 39 289.5 L 31 289.5  A 2.5 2.5 0 0 1 28.5 287 L 28.5 279  Z " fill-rule="nonzero" fill="#f0f0f0" stroke="none" />
  <path d="M 28.5 279  A 2.5 2.5 0 0 1 31 276.5 L 39 276.5  A 2.5 2.5 0 0 1 41.5 279 L 41.5 287  A 2.5 2.5 0 0 1 39 289.5 L 31 289.5  A 2.5 2.5 0 0 1 28.5 287 L 28.5 279  Z " stroke-width="1" stroke="#797979" fill="none" />
  <path d="M 31 283  L 34 286  L 39 279  " stroke-width="3" stroke="#797979" fill="none" />
</svg>