<?xml version="1.0" encoding="utf-8"?>
<svg version="1.1" xmlns:xlink="http://www.w3.org/1999/xlink" width="14px" height="14px" viewBox="28 246  14 14" xmlns="http://www.w3.org/2000/svg">
  <path d="M 28.5 249  A 2.5 2.5 0 0 1 31 246.5 L 39 246.5  A 2.5 2.5 0 0 1 41.5 249 L 41.5 257  A 2.5 2.5 0 0 1 39 259.5 L 31 259.5  A 2.5 2.5 0 0 1 28.5 257 L 28.5 249  Z " fill-rule="nonzero" fill="#ffffff" stroke="none" />
  <path d="M 28.5 249  A 2.5 2.5 0 0 1 31 246.5 L 39 246.5  A 2.5 2.5 0 0 1 41.5 249 L 41.5 257  A 2.5 2.5 0 0 1 39 259.5 L 31 259.5  A 2.5 2.5 0 0 1 28.5 257 L 28.5 249  Z " stroke-width="1" stroke="#797979" fill="none" />
  <path d="M 31 253  L 34 256  L 39 249  " stroke-width="3" stroke="#797979" fill="none" />
</svg>