<?xml version="1.0" encoding="utf-8"?>
<svg version="1.1" xmlns:xlink="http://www.w3.org/1999/xlink" width="14px" height="14px" viewBox="29 582  14 14" xmlns="http://www.w3.org/2000/svg">
  <path d="M 29.5 585  A 2.5 2.5 0 0 1 32 582.5 L 40 582.5  A 2.5 2.5 0 0 1 42.5 585 L 42.5 593  A 2.5 2.5 0 0 1 40 595.5 L 32 595.5  A 2.5 2.5 0 0 1 29.5 593 L 29.5 585  Z " fill-rule="nonzero" fill="#ffffff" stroke="none" />
  <path d="M 29.5 585  A 2.5 2.5 0 0 1 32 582.5 L 40 582.5  A 2.5 2.5 0 0 1 42.5 585 L 42.5 593  A 2.5 2.5 0 0 1 40 595.5 L 32 595.5  A 2.5 2.5 0 0 1 29.5 593 L 29.5 585  Z " stroke-width="1" stroke="#797979" fill="none" />
  <path d="M 32 589  L 35 592  L 40 585  " stroke-width="3" stroke="#797979" fill="none" />
</svg>