<?xml version="1.0" encoding="utf-8"?>
<svg version="1.1" xmlns:xlink="http://www.w3.org/1999/xlink" width="14px" height="14px" viewBox="29 554  14 14" xmlns="http://www.w3.org/2000/svg">
  <path d="M 29.5 557  A 2.5 2.5 0 0 1 32 554.5 L 40 554.5  A 2.5 2.5 0 0 1 42.5 557 L 42.5 565  A 2.5 2.5 0 0 1 40 567.5 L 32 567.5  A 2.5 2.5 0 0 1 29.5 565 L 29.5 557  Z " fill-rule="nonzero" fill="#ffffff" stroke="none" />
  <path d="M 29.5 557  A 2.5 2.5 0 0 1 32 554.5 L 40 554.5  A 2.5 2.5 0 0 1 42.5 557 L 42.5 565  A 2.5 2.5 0 0 1 40 567.5 L 32 567.5  A 2.5 2.5 0 0 1 29.5 565 L 29.5 557  Z " stroke-width="1" stroke="#797979" fill="none" />
  <path d="M 32 561  L 35 564  L 40 557  " stroke-width="3" stroke="#797979" fill="none" />
</svg>