<?xml version="1.0" encoding="utf-8"?>
<svg version="1.1" xmlns:xlink="http://www.w3.org/1999/xlink" width="14px" height="14px" viewBox="29 642  14 14" xmlns="http://www.w3.org/2000/svg">
  <path d="M 29.5 645  A 2.5 2.5 0 0 1 32 642.5 L 40 642.5  A 2.5 2.5 0 0 1 42.5 645 L 42.5 653  A 2.5 2.5 0 0 1 40 655.5 L 32 655.5  A 2.5 2.5 0 0 1 29.5 653 L 29.5 645  Z " fill-rule="nonzero" fill="#f0f0f0" stroke="none" />
  <path d="M 29.5 645  A 2.5 2.5 0 0 1 32 642.5 L 40 642.5  A 2.5 2.5 0 0 1 42.5 645 L 42.5 653  A 2.5 2.5 0 0 1 40 655.5 L 32 655.5  A 2.5 2.5 0 0 1 29.5 653 L 29.5 645  Z " stroke-width="1" stroke="#797979" fill="none" />
  <path d="M 32 649  L 35 652  L 40 645  " stroke-width="3" stroke="#797979" fill="none" />
</svg>