<?xml version="1.0" encoding="utf-8"?>
<svg version="1.1" xmlns:xlink="http://www.w3.org/1999/xlink" width="14px" height="14px" viewBox="29 612  14 14" xmlns="http://www.w3.org/2000/svg">
  <path d="M 29.5 615  A 2.5 2.5 0 0 1 32 612.5 L 40 612.5  A 2.5 2.5 0 0 1 42.5 615 L 42.5 623  A 2.5 2.5 0 0 1 40 625.5 L 32 625.5  A 2.5 2.5 0 0 1 29.5 623 L 29.5 615  Z " fill-rule="nonzero" fill="#f0f0f0" stroke="none" />
  <path d="M 29.5 615  A 2.5 2.5 0 0 1 32 612.5 L 40 612.5  A 2.5 2.5 0 0 1 42.5 615 L 42.5 623  A 2.5 2.5 0 0 1 40 625.5 L 32 625.5  A 2.5 2.5 0 0 1 29.5 623 L 29.5 615  Z " stroke-width="1" stroke="#797979" fill="none" />
</svg>