<?xml version="1.0" encoding="utf-8"?>
<svg version="1.1" xmlns:xlink="http://www.w3.org/1999/xlink" width="14px" height="14px" viewBox="29 672  14 14" xmlns="http://www.w3.org/2000/svg">
  <path d="M 29.5 675  A 2.5 2.5 0 0 1 32 672.5 L 40 672.5  A 2.5 2.5 0 0 1 42.5 675 L 42.5 683  A 2.5 2.5 0 0 1 40 685.5 L 32 685.5  A 2.5 2.5 0 0 1 29.5 683 L 29.5 675  Z " fill-rule="nonzero" fill="#ffffff" stroke="none" />
  <path d="M 29.5 675  A 2.5 2.5 0 0 1 32 672.5 L 40 672.5  A 2.5 2.5 0 0 1 42.5 675 L 42.5 683  A 2.5 2.5 0 0 1 40 685.5 L 32 685.5  A 2.5 2.5 0 0 1 29.5 683 L 29.5 675  Z " stroke-width="1" stroke="#797979" fill="none" />
  <path d="M 32 679  L 35 682  L 40 675  " stroke-width="3" stroke="#797979" fill="none" />
</svg>