<?xml version="1.0" encoding="utf-8"?>
<svg version="1.1" xmlns:xlink="http://www.w3.org/1999/xlink" width="14px" height="14px" viewBox="29 702  14 14" xmlns="http://www.w3.org/2000/svg">
  <path d="M 29.5 705  A 2.5 2.5 0 0 1 32 702.5 L 40 702.5  A 2.5 2.5 0 0 1 42.5 705 L 42.5 713  A 2.5 2.5 0 0 1 40 715.5 L 32 715.5  A 2.5 2.5 0 0 1 29.5 713 L 29.5 705  Z " fill-rule="nonzero" fill="#ffffff" stroke="none" />
  <path d="M 29.5 705  A 2.5 2.5 0 0 1 32 702.5 L 40 702.5  A 2.5 2.5 0 0 1 42.5 705 L 42.5 713  A 2.5 2.5 0 0 1 40 715.5 L 32 715.5  A 2.5 2.5 0 0 1 29.5 713 L 29.5 705  Z " stroke-width="1" stroke="#797979" fill="none" />
</svg>