<?xml version="1.0" encoding="utf-8"?>
<svg version="1.1" xmlns:xlink="http://www.w3.org/1999/xlink" width="14px" height="14px" viewBox="539 554  14 14" xmlns="http://www.w3.org/2000/svg">
  <path d="M 539.5 557  A 2.5 2.5 0 0 1 542 554.5 L 550 554.5  A 2.5 2.5 0 0 1 552.5 557 L 552.5 565  A 2.5 2.5 0 0 1 550 567.5 L 542 567.5  A 2.5 2.5 0 0 1 539.5 565 L 539.5 557  Z " fill-rule="nonzero" fill="#ffffff" stroke="none" />
  <path d="M 539.5 557  A 2.5 2.5 0 0 1 542 554.5 L 550 554.5  A 2.5 2.5 0 0 1 552.5 557 L 552.5 565  A 2.5 2.5 0 0 1 550 567.5 L 542 567.5  A 2.5 2.5 0 0 1 539.5 565 L 539.5 557  Z " stroke-width="1" stroke="#797979" fill="none" />
  <path d="M 542 561  L 545 564  L 550 557  " stroke-width="3" stroke="#797979" fill="none" />
</svg>