<?xml version="1.0" encoding="utf-8"?>
<svg version="1.1" xmlns:xlink="http://www.w3.org/1999/xlink" width="10px" height="10px" xmlns="http://www.w3.org/2000/svg">
  <g transform="matrix(1 0 0 1 -452 -9 )">
    <path d="M 9.6643708881579 9.6643708881579  C 10.0241570723684 9.30201480263158  10.0241570723684 8.71607730263158  9.6643708881579 8.35629111842105  L 6.30807976973684 5  L 9.6643708881579 1.64370888157895  C 10.0267269736842 1.28135279605263  10.0267269736842 0.697985197368421  9.6643708881579 0.335629111842105  C 9.30201480263158 -0.0267269736842105  8.71864720394737 -0.0267269736842105  8.35629111842105 0.335629111842105  L 5 3.69192023026316  L 1.64370888157895 0.335629111842105  C 1.28135279605263 -0.0267269736842105  0.697985197368421 -0.0267269736842105  0.335629111842105 0.335629111842105  C -0.0267269736842105 0.697985197368421  -0.0267269736842105 1.28135279605263  0.335629111842105 1.64370888157895  L 3.69192023026316 5  L 0.335629111842105 8.35629111842105  C -0.0267269736842105 8.71864720394737  -0.0267269736842105 9.30201480263158  0.335629111842105 9.6643708881579  C 0.697985197368421 10.0267269736842  1.28135279605263 10.0267269736842  1.64370888157895 9.6643708881579  L 5 6.30807976973684  L 8.35629111842105 9.6643708881579  C 8.71864720394737 10.0267269736842  9.30201480263158 10.0267269736842  9.6643708881579 9.6643708881579  Z " fill-rule="nonzero" fill="#000000" stroke="none" transform="matrix(1 0 0 1 452 9 )" />
  </g>
</svg>