<?xml version="1.0" encoding="utf-8"?>
<svg version="1.1" xmlns:xlink="http://www.w3.org/1999/xlink" width="14px" height="14px" viewBox="28 219  14 14" xmlns="http://www.w3.org/2000/svg">
  <path d="M 28.5 222  A 2.5 2.5 0 0 1 31 219.5 L 39 219.5  A 2.5 2.5 0 0 1 41.5 222 L 41.5 230  A 2.5 2.5 0 0 1 39 232.5 L 31 232.5  A 2.5 2.5 0 0 1 28.5 230 L 28.5 222  Z " fill-rule="nonzero" fill="#f0f0f0" stroke="none" />
  <path d="M 28.5 222  A 2.5 2.5 0 0 1 31 219.5 L 39 219.5  A 2.5 2.5 0 0 1 41.5 222 L 41.5 230  A 2.5 2.5 0 0 1 39 232.5 L 31 232.5  A 2.5 2.5 0 0 1 28.5 230 L 28.5 222  Z " stroke-width="1" stroke="#797979" fill="none" />
  <path d="M 31 226  L 34 229  L 39 222  " stroke-width="3" stroke="#797979" fill="none" />
</svg>