<?xml version="1.0" encoding="utf-8"?>
<svg version="1.1" xmlns:xlink="http://www.w3.org/1999/xlink" width="14px" height="14px" viewBox="28 429  14 14" xmlns="http://www.w3.org/2000/svg">
  <path d="M 28.5 432  A 2.5 2.5 0 0 1 31 429.5 L 39 429.5  A 2.5 2.5 0 0 1 41.5 432 L 41.5 440  A 2.5 2.5 0 0 1 39 442.5 L 31 442.5  A 2.5 2.5 0 0 1 28.5 440 L 28.5 432  Z " fill-rule="nonzero" fill="#ffffff" stroke="none" />
  <path d="M 28.5 432  A 2.5 2.5 0 0 1 31 429.5 L 39 429.5  A 2.5 2.5 0 0 1 41.5 432 L 41.5 440  A 2.5 2.5 0 0 1 39 442.5 L 31 442.5  A 2.5 2.5 0 0 1 28.5 440 L 28.5 432  Z " stroke-width="1" stroke="#797979" fill="none" />
  <path d="M 31 436  L 34 439  L 39 432  " stroke-width="3" stroke="#797979" fill="none" />
</svg>