<?xml version="1.0" encoding="utf-8"?>
<svg version="1.1" xmlns:xlink="http://www.w3.org/1999/xlink" width="14px" height="14px" viewBox="28 549  14 14" xmlns="http://www.w3.org/2000/svg">
  <path d="M 28.5 552  A 2.5 2.5 0 0 1 31 549.5 L 39 549.5  A 2.5 2.5 0 0 1 41.5 552 L 41.5 560  A 2.5 2.5 0 0 1 39 562.5 L 31 562.5  A 2.5 2.5 0 0 1 28.5 560 L 28.5 552  Z " fill-rule="nonzero" fill="#ffffff" stroke="none" />
  <path d="M 28.5 552  A 2.5 2.5 0 0 1 31 549.5 L 39 549.5  A 2.5 2.5 0 0 1 41.5 552 L 41.5 560  A 2.5 2.5 0 0 1 39 562.5 L 31 562.5  A 2.5 2.5 0 0 1 28.5 560 L 28.5 552  Z " stroke-width="1" stroke="#797979" fill="none" />
  <path d="M 31 556  L 34 559  L 39 552  " stroke-width="3" stroke="#797979" fill="none" />
</svg>