<?xml version="1.0" encoding="utf-8"?>
<svg version="1.1" xmlns:xlink="http://www.w3.org/1999/xlink" width="14px" height="14px" viewBox="28 369  14 14" xmlns="http://www.w3.org/2000/svg">
  <path d="M 28.5 372  A 2.5 2.5 0 0 1 31 369.5 L 39 369.5  A 2.5 2.5 0 0 1 41.5 372 L 41.5 380  A 2.5 2.5 0 0 1 39 382.5 L 31 382.5  A 2.5 2.5 0 0 1 28.5 380 L 28.5 372  Z " fill-rule="nonzero" fill="#f0f0f0" stroke="none" />
  <path d="M 28.5 372  A 2.5 2.5 0 0 1 31 369.5 L 39 369.5  A 2.5 2.5 0 0 1 41.5 372 L 41.5 380  A 2.5 2.5 0 0 1 39 382.5 L 31 382.5  A 2.5 2.5 0 0 1 28.5 380 L 28.5 372  Z " stroke-width="1" stroke="#797979" fill="none" />
  <path d="M 31 376  L 34 379  L 39 372  " stroke-width="3" stroke="#797979" fill="none" />
</svg>