<?xml version="1.0" encoding="utf-8"?>
<svg version="1.1" xmlns:xlink="http://www.w3.org/1999/xlink" width="14px" height="14px" viewBox="28 489  14 14" xmlns="http://www.w3.org/2000/svg">
  <path d="M 28.5 492  A 2.5 2.5 0 0 1 31 489.5 L 39 489.5  A 2.5 2.5 0 0 1 41.5 492 L 41.5 500  A 2.5 2.5 0 0 1 39 502.5 L 31 502.5  A 2.5 2.5 0 0 1 28.5 500 L 28.5 492  Z " fill-rule="nonzero" fill="#ffffff" stroke="none" />
  <path d="M 28.5 492  A 2.5 2.5 0 0 1 31 489.5 L 39 489.5  A 2.5 2.5 0 0 1 41.5 492 L 41.5 500  A 2.5 2.5 0 0 1 39 502.5 L 31 502.5  A 2.5 2.5 0 0 1 28.5 500 L 28.5 492  Z " stroke-width="1" stroke="#797979" fill="none" />
  <path d="M 31 496  L 34 499  L 39 492  " stroke-width="3" stroke="#797979" fill="none" />
</svg>