<?xml version="1.0" encoding="utf-8"?>
<svg version="1.1" xmlns:xlink="http://www.w3.org/1999/xlink" width="14px" height="14px" viewBox="28 339  14 14" xmlns="http://www.w3.org/2000/svg">
  <path d="M 28.5 342  A 2.5 2.5 0 0 1 31 339.5 L 39 339.5  A 2.5 2.5 0 0 1 41.5 342 L 41.5 350  A 2.5 2.5 0 0 1 39 352.5 L 31 352.5  A 2.5 2.5 0 0 1 28.5 350 L 28.5 342  Z " fill-rule="nonzero" fill="#ffffff" stroke="none" />
  <path d="M 28.5 342  A 2.5 2.5 0 0 1 31 339.5 L 39 339.5  A 2.5 2.5 0 0 1 41.5 342 L 41.5 350  A 2.5 2.5 0 0 1 39 352.5 L 31 352.5  A 2.5 2.5 0 0 1 28.5 350 L 28.5 342  Z " stroke-width="1" stroke="#797979" fill="none" />
  <path d="M 31 346  L 34 349  L 39 342  " stroke-width="3" stroke="#797979" fill="none" />
</svg>