<?xml version="1.0" encoding="utf-8"?>
<svg version="1.1" xmlns:xlink="http://www.w3.org/1999/xlink" width="14px" height="14px" viewBox="28 399  14 14" xmlns="http://www.w3.org/2000/svg">
  <path d="M 28.5 402  A 2.5 2.5 0 0 1 31 399.5 L 39 399.5  A 2.5 2.5 0 0 1 41.5 402 L 41.5 410  A 2.5 2.5 0 0 1 39 412.5 L 31 412.5  A 2.5 2.5 0 0 1 28.5 410 L 28.5 402  Z " fill-rule="nonzero" fill="#f0f0f0" stroke="none" />
  <path d="M 28.5 402  A 2.5 2.5 0 0 1 31 399.5 L 39 399.5  A 2.5 2.5 0 0 1 41.5 402 L 41.5 410  A 2.5 2.5 0 0 1 39 412.5 L 31 412.5  A 2.5 2.5 0 0 1 28.5 410 L 28.5 402  Z " stroke-width="1" stroke="#797979" fill="none" />
  <path d="M 31 406  L 34 409  L 39 402  " stroke-width="3" stroke="#797979" fill="none" />
</svg>