<?xml version="1.0" encoding="utf-8"?>
<svg version="1.1" xmlns:xlink="http://www.w3.org/1999/xlink" width="14px" height="14px" viewBox="28 788  14 14" xmlns="http://www.w3.org/2000/svg">
  <path d="M 28.5 791  A 2.5 2.5 0 0 1 31 788.5 L 39 788.5  A 2.5 2.5 0 0 1 41.5 791 L 41.5 799  A 2.5 2.5 0 0 1 39 801.5 L 31 801.5  A 2.5 2.5 0 0 1 28.5 799 L 28.5 791  Z " fill-rule="nonzero" fill="#f0f0f0" stroke="none" />
  <path d="M 28.5 791  A 2.5 2.5 0 0 1 31 788.5 L 39 788.5  A 2.5 2.5 0 0 1 41.5 791 L 41.5 799  A 2.5 2.5 0 0 1 39 801.5 L 31 801.5  A 2.5 2.5 0 0 1 28.5 799 L 28.5 791  Z " stroke-width="1" stroke="#797979" fill="none" />
  <path d="M 31 795  L 34 798  L 39 791  " stroke-width="3" stroke="#797979" fill="none" />
</svg>