<?xml version="1.0" encoding="utf-8"?>
<svg version="1.1" xmlns:xlink="http://www.w3.org/1999/xlink" width="14px" height="14px" viewBox="28 638  14 14" xmlns="http://www.w3.org/2000/svg">
  <path d="M 28.5 641  A 2.5 2.5 0 0 1 31 638.5 L 39 638.5  A 2.5 2.5 0 0 1 41.5 641 L 41.5 649  A 2.5 2.5 0 0 1 39 651.5 L 31 651.5  A 2.5 2.5 0 0 1 28.5 649 L 28.5 641  Z " fill-rule="nonzero" fill="#f0f0f0" stroke="none" />
  <path d="M 28.5 641  A 2.5 2.5 0 0 1 31 638.5 L 39 638.5  A 2.5 2.5 0 0 1 41.5 641 L 41.5 649  A 2.5 2.5 0 0 1 39 651.5 L 31 651.5  A 2.5 2.5 0 0 1 28.5 649 L 28.5 641  Z " stroke-width="1" stroke="#797979" fill="none" />
</svg>