<?xml version="1.0" encoding="utf-8"?>
<svg version="1.1" xmlns:xlink="http://www.w3.org/1999/xlink" width="14px" height="14px" viewBox="28 728  14 14" xmlns="http://www.w3.org/2000/svg">
  <path d="M 28.5 731  A 2.5 2.5 0 0 1 31 728.5 L 39 728.5  A 2.5 2.5 0 0 1 41.5 731 L 41.5 739  A 2.5 2.5 0 0 1 39 741.5 L 31 741.5  A 2.5 2.5 0 0 1 28.5 739 L 28.5 731  Z " fill-rule="nonzero" fill="#f0f0f0" stroke="none" />
  <path d="M 28.5 731  A 2.5 2.5 0 0 1 31 728.5 L 39 728.5  A 2.5 2.5 0 0 1 41.5 731 L 41.5 739  A 2.5 2.5 0 0 1 39 741.5 L 31 741.5  A 2.5 2.5 0 0 1 28.5 739 L 28.5 731  Z " stroke-width="1" stroke="#797979" fill="none" />
  <path d="M 31 735  L 34 738  L 39 731  " stroke-width="3" stroke="#797979" fill="none" />
</svg>