<?xml version="1.0" encoding="utf-8"?>
<svg version="1.1" xmlns:xlink="http://www.w3.org/1999/xlink" width="14px" height="14px" viewBox="28 818  14 14" xmlns="http://www.w3.org/2000/svg">
  <path d="M 28.5 821  A 2.5 2.5 0 0 1 31 818.5 L 39 818.5  A 2.5 2.5 0 0 1 41.5 821 L 41.5 829  A 2.5 2.5 0 0 1 39 831.5 L 31 831.5  A 2.5 2.5 0 0 1 28.5 829 L 28.5 821  Z " fill-rule="nonzero" fill="#f0f0f0" stroke="none" />
  <path d="M 28.5 821  A 2.5 2.5 0 0 1 31 818.5 L 39 818.5  A 2.5 2.5 0 0 1 41.5 821 L 41.5 829  A 2.5 2.5 0 0 1 39 831.5 L 31 831.5  A 2.5 2.5 0 0 1 28.5 829 L 28.5 821  Z " stroke-width="1" stroke="#797979" fill="none" />
  <path d="M 31 825  L 34 828  L 39 821  " stroke-width="3" stroke="#797979" fill="none" />
</svg>