<?xml version="1.0" encoding="utf-8"?>
<svg version="1.1" xmlns:xlink="http://www.w3.org/1999/xlink" width="14px" height="14px" viewBox="28 579  14 14" xmlns="http://www.w3.org/2000/svg">
  <path d="M 28.5 582  A 2.5 2.5 0 0 1 31 579.5 L 39 579.5  A 2.5 2.5 0 0 1 41.5 582 L 41.5 590  A 2.5 2.5 0 0 1 39 592.5 L 31 592.5  A 2.5 2.5 0 0 1 28.5 590 L 28.5 582  Z " fill-rule="nonzero" fill="#ffffff" stroke="none" />
  <path d="M 28.5 582  A 2.5 2.5 0 0 1 31 579.5 L 39 579.5  A 2.5 2.5 0 0 1 41.5 582 L 41.5 590  A 2.5 2.5 0 0 1 39 592.5 L 31 592.5  A 2.5 2.5 0 0 1 28.5 590 L 28.5 582  Z " stroke-width="1" stroke="#797979" fill="none" />
</svg>