<?xml version="1.0" encoding="utf-8"?>
<svg version="1.1" xmlns:xlink="http://www.w3.org/1999/xlink" width="14px" height="14px" viewBox="28 878  14 14" xmlns="http://www.w3.org/2000/svg">
  <path d="M 28.5 881  A 2.5 2.5 0 0 1 31 878.5 L 39 878.5  A 2.5 2.5 0 0 1 41.5 881 L 41.5 889  A 2.5 2.5 0 0 1 39 891.5 L 31 891.5  A 2.5 2.5 0 0 1 28.5 889 L 28.5 881  Z " fill-rule="nonzero" fill="#ffffff" stroke="none" />
  <path d="M 28.5 881  A 2.5 2.5 0 0 1 31 878.5 L 39 878.5  A 2.5 2.5 0 0 1 41.5 881 L 41.5 889  A 2.5 2.5 0 0 1 39 891.5 L 31 891.5  A 2.5 2.5 0 0 1 28.5 889 L 28.5 881  Z " stroke-width="1" stroke="#797979" fill="none" />
  <path d="M 31 885  L 34 888  L 39 881  " stroke-width="3" stroke="#797979" fill="none" />
</svg>