<?xml version="1.0" encoding="utf-8"?>
<svg version="1.1" xmlns:xlink="http://www.w3.org/1999/xlink" width="14px" height="14px" viewBox="28 938  14 14" xmlns="http://www.w3.org/2000/svg">
  <path d="M 28.5 941  A 2.5 2.5 0 0 1 31 938.5 L 39 938.5  A 2.5 2.5 0 0 1 41.5 941 L 41.5 949  A 2.5 2.5 0 0 1 39 951.5 L 31 951.5  A 2.5 2.5 0 0 1 28.5 949 L 28.5 941  Z " fill-rule="nonzero" fill="#ffffff" stroke="none" />
  <path d="M 28.5 941  A 2.5 2.5 0 0 1 31 938.5 L 39 938.5  A 2.5 2.5 0 0 1 41.5 941 L 41.5 949  A 2.5 2.5 0 0 1 39 951.5 L 31 951.5  A 2.5 2.5 0 0 1 28.5 949 L 28.5 941  Z " stroke-width="1" stroke="#797979" fill="none" />
</svg>