<?xml version="1.0" encoding="utf-8"?>
<svg version="1.1" xmlns:xlink="http://www.w3.org/1999/xlink" width="14px" height="14px" viewBox="15 7  14 14" xmlns="http://www.w3.org/2000/svg">
  <path d="M 15.5 9  A 1.5 1.5 0 0 1 17 7.5 L 27 7.5  A 1.5 1.5 0 0 1 28.5 9 L 28.5 19  A 1.5 1.5 0 0 1 27 20.5 L 17 20.5  A 1.5 1.5 0 0 1 15.5 19 L 15.5 9  Z " fill-rule="nonzero" fill="#f0f0f0" stroke="none" />
  <path d="M 15.5 9  A 1.5 1.5 0 0 1 17 7.5 L 27 7.5  A 1.5 1.5 0 0 1 28.5 9 L 28.5 19  A 1.5 1.5 0 0 1 27 20.5 L 17 20.5  A 1.5 1.5 0 0 1 15.5 19 L 15.5 9  Z " stroke-width="1" stroke="#797979" fill="none" />
</svg>