<?xml version="1.0" encoding="utf-8"?>
<svg version="1.1" xmlns:xlink="http://www.w3.org/1999/xlink" width="14px" height="14px" viewBox="58 208  14 14" xmlns="http://www.w3.org/2000/svg">
  <path d="M 58.5 211  A 2.5 2.5 0 0 1 61 208.5 L 69 208.5  A 2.5 2.5 0 0 1 71.5 211 L 71.5 219  A 2.5 2.5 0 0 1 69 221.5 L 61 221.5  A 2.5 2.5 0 0 1 58.5 219 L 58.5 211  Z " fill-rule="nonzero" fill="#ffffff" stroke="none" />
  <path d="M 58.5 211  A 2.5 2.5 0 0 1 61 208.5 L 69 208.5  A 2.5 2.5 0 0 1 71.5 211 L 71.5 219  A 2.5 2.5 0 0 1 69 221.5 L 61 221.5  A 2.5 2.5 0 0 1 58.5 219 L 58.5 211  Z " stroke-width="1" stroke="#797979" fill="none" />
  <path d="M 61 215  L 64 218  L 69 211  " stroke-width="3" stroke="#797979" fill="none" />
</svg>