<?xml version="1.0" encoding="utf-8"?>
<svg version="1.1" xmlns:xlink="http://www.w3.org/1999/xlink" width="14px" height="14px" viewBox="58 298  14 14" xmlns="http://www.w3.org/2000/svg">
  <path d="M 58.5 301  A 2.5 2.5 0 0 1 61 298.5 L 69 298.5  A 2.5 2.5 0 0 1 71.5 301 L 71.5 309  A 2.5 2.5 0 0 1 69 311.5 L 61 311.5  A 2.5 2.5 0 0 1 58.5 309 L 58.5 301  Z " fill-rule="nonzero" fill="#f0f0f0" stroke="none" />
  <path d="M 58.5 301  A 2.5 2.5 0 0 1 61 298.5 L 69 298.5  A 2.5 2.5 0 0 1 71.5 301 L 71.5 309  A 2.5 2.5 0 0 1 69 311.5 L 61 311.5  A 2.5 2.5 0 0 1 58.5 309 L 58.5 301  Z " stroke-width="1" stroke="#797979" fill="none" />
  <path d="M 61 305  L 64 308  L 69 301  " stroke-width="3" stroke="#797979" fill="none" />
</svg>