<?xml version="1.0" encoding="utf-8"?>
<svg version="1.1" xmlns:xlink="http://www.w3.org/1999/xlink" width="14px" height="14px" viewBox="58 328  14 14" xmlns="http://www.w3.org/2000/svg">
  <path d="M 58.5 331  A 2.5 2.5 0 0 1 61 328.5 L 69 328.5  A 2.5 2.5 0 0 1 71.5 331 L 71.5 339  A 2.5 2.5 0 0 1 69 341.5 L 61 341.5  A 2.5 2.5 0 0 1 58.5 339 L 58.5 331  Z " fill-rule="nonzero" fill="#ffffff" stroke="none" />
  <path d="M 58.5 331  A 2.5 2.5 0 0 1 61 328.5 L 69 328.5  A 2.5 2.5 0 0 1 71.5 331 L 71.5 339  A 2.5 2.5 0 0 1 69 341.5 L 61 341.5  A 2.5 2.5 0 0 1 58.5 339 L 58.5 331  Z " stroke-width="1" stroke="#797979" fill="none" />
  <path d="M 61 335  L 64 338  L 69 331  " stroke-width="3" stroke="#797979" fill="none" />
</svg>