<?xml version="1.0" encoding="utf-8"?>
<svg version="1.1" xmlns:xlink="http://www.w3.org/1999/xlink" width="14px" height="14px" viewBox="58 418  14 14" xmlns="http://www.w3.org/2000/svg">
  <path d="M 58.5 421  A 2.5 2.5 0 0 1 61 418.5 L 69 418.5  A 2.5 2.5 0 0 1 71.5 421 L 71.5 429  A 2.5 2.5 0 0 1 69 431.5 L 61 431.5  A 2.5 2.5 0 0 1 58.5 429 L 58.5 421  Z " fill-rule="nonzero" fill="#f0f0f0" stroke="none" />
  <path d="M 58.5 421  A 2.5 2.5 0 0 1 61 418.5 L 69 418.5  A 2.5 2.5 0 0 1 71.5 421 L 71.5 429  A 2.5 2.5 0 0 1 69 431.5 L 61 431.5  A 2.5 2.5 0 0 1 58.5 429 L 58.5 421  Z " stroke-width="1" stroke="#797979" fill="none" />
</svg>