<?xml version="1.0" encoding="utf-8"?>
<svg version="1.1" xmlns:xlink="http://www.w3.org/1999/xlink" width="14px" height="14px" viewBox="58 508  14 14" xmlns="http://www.w3.org/2000/svg">
  <path d="M 58.5 511  A 2.5 2.5 0 0 1 61 508.5 L 69 508.5  A 2.5 2.5 0 0 1 71.5 511 L 71.5 519  A 2.5 2.5 0 0 1 69 521.5 L 61 521.5  A 2.5 2.5 0 0 1 58.5 519 L 58.5 511  Z " fill-rule="nonzero" fill="#f0f0f0" stroke="none" />
  <path d="M 58.5 511  A 2.5 2.5 0 0 1 61 508.5 L 69 508.5  A 2.5 2.5 0 0 1 71.5 511 L 71.5 519  A 2.5 2.5 0 0 1 69 521.5 L 61 521.5  A 2.5 2.5 0 0 1 58.5 519 L 58.5 511  Z " stroke-width="1" stroke="#797979" fill="none" />
</svg>