<?xml version="1.0" encoding="utf-8"?>
<svg version="1.1" xmlns:xlink="http://www.w3.org/1999/xlink" width="14px" height="14px" viewBox="58 628  14 14" xmlns="http://www.w3.org/2000/svg">
  <path d="M 58.5 631  A 2.5 2.5 0 0 1 61 628.5 L 69 628.5  A 2.5 2.5 0 0 1 71.5 631 L 71.5 639  A 2.5 2.5 0 0 1 69 641.5 L 61 641.5  A 2.5 2.5 0 0 1 58.5 639 L 58.5 631  Z " fill-rule="nonzero" fill="#ffffff" stroke="none" />
  <path d="M 58.5 631  A 2.5 2.5 0 0 1 61 628.5 L 69 628.5  A 2.5 2.5 0 0 1 71.5 631 L 71.5 639  A 2.5 2.5 0 0 1 69 641.5 L 61 641.5  A 2.5 2.5 0 0 1 58.5 639 L 58.5 631  Z " stroke-width="1" stroke="#797979" fill="none" />
</svg>