<?xml version="1.0" encoding="utf-8"?>
<svg version="1.1" xmlns:xlink="http://www.w3.org/1999/xlink" width="14px" height="14px" viewBox="58 749  14 14" xmlns="http://www.w3.org/2000/svg">
  <path d="M 58.5 752  A 2.5 2.5 0 0 1 61 749.5 L 69 749.5  A 2.5 2.5 0 0 1 71.5 752 L 71.5 760  A 2.5 2.5 0 0 1 69 762.5 L 61 762.5  A 2.5 2.5 0 0 1 58.5 760 L 58.5 752  Z " fill-rule="nonzero" fill="#ffffff" stroke="none" />
  <path d="M 58.5 752  A 2.5 2.5 0 0 1 61 749.5 L 69 749.5  A 2.5 2.5 0 0 1 71.5 752 L 71.5 760  A 2.5 2.5 0 0 1 69 762.5 L 61 762.5  A 2.5 2.5 0 0 1 58.5 760 L 58.5 752  Z " stroke-width="1" stroke="#797979" fill="none" />
  <path d="M 61 756  L 64 759  L 69 752  " stroke-width="3" stroke="#797979" fill="none" />
</svg>