<?xml version="1.0" encoding="utf-8"?>
<svg version="1.1" xmlns:xlink="http://www.w3.org/1999/xlink" width="14px" height="14px" viewBox="58 779  14 14" xmlns="http://www.w3.org/2000/svg">
  <path d="M 58.5 782  A 2.5 2.5 0 0 1 61 779.5 L 69 779.5  A 2.5 2.5 0 0 1 71.5 782 L 71.5 790  A 2.5 2.5 0 0 1 69 792.5 L 61 792.5  A 2.5 2.5 0 0 1 58.5 790 L 58.5 782  Z " fill-rule="nonzero" fill="#ffffff" stroke="none" />
  <path d="M 58.5 782  A 2.5 2.5 0 0 1 61 779.5 L 69 779.5  A 2.5 2.5 0 0 1 71.5 782 L 71.5 790  A 2.5 2.5 0 0 1 69 792.5 L 61 792.5  A 2.5 2.5 0 0 1 58.5 790 L 58.5 782  Z " stroke-width="1" stroke="#797979" fill="none" />
  <path d="M 61 786  L 64 789  L 69 782  " stroke-width="3" stroke="#797979" fill="none" />
</svg>