<?xml version="1.0" encoding="utf-8"?>
<svg version="1.1" xmlns:xlink="http://www.w3.org/1999/xlink" width="14px" height="14px" viewBox="58 809  14 14" xmlns="http://www.w3.org/2000/svg">
  <path d="M 58.5 812  A 2.5 2.5 0 0 1 61 809.5 L 69 809.5  A 2.5 2.5 0 0 1 71.5 812 L 71.5 820  A 2.5 2.5 0 0 1 69 822.5 L 61 822.5  A 2.5 2.5 0 0 1 58.5 820 L 58.5 812  Z " fill-rule="nonzero" fill="#ffffff" stroke="none" />
  <path d="M 58.5 812  A 2.5 2.5 0 0 1 61 809.5 L 69 809.5  A 2.5 2.5 0 0 1 71.5 812 L 71.5 820  A 2.5 2.5 0 0 1 69 822.5 L 61 822.5  A 2.5 2.5 0 0 1 58.5 820 L 58.5 812  Z " stroke-width="1" stroke="#797979" fill="none" />
  <path d="M 61 816  L 64 819  L 69 812  " stroke-width="3" stroke="#797979" fill="none" />
</svg>