<?xml version="1.0" encoding="utf-8"?>
<svg version="1.1" xmlns:xlink="http://www.w3.org/1999/xlink" width="14px" height="14px" viewBox="58 959  14 14" xmlns="http://www.w3.org/2000/svg">
  <path d="M 58.5 962  A 2.5 2.5 0 0 1 61 959.5 L 69 959.5  A 2.5 2.5 0 0 1 71.5 962 L 71.5 970  A 2.5 2.5 0 0 1 69 972.5 L 61 972.5  A 2.5 2.5 0 0 1 58.5 970 L 58.5 962  Z " fill-rule="nonzero" fill="#ffffff" stroke="none" />
  <path d="M 58.5 962  A 2.5 2.5 0 0 1 61 959.5 L 69 959.5  A 2.5 2.5 0 0 1 71.5 962 L 71.5 970  A 2.5 2.5 0 0 1 69 972.5 L 61 972.5  A 2.5 2.5 0 0 1 58.5 970 L 58.5 962  Z " stroke-width="1" stroke="#797979" fill="none" />
  <path d="M 61 966  L 64 969  L 69 962  " stroke-width="3" stroke="#797979" fill="none" />
</svg>