<?xml version="1.0" encoding="utf-8"?>
<svg version="1.1" xmlns:xlink="http://www.w3.org/1999/xlink" width="14px" height="14px" viewBox="58 989  14 14" xmlns="http://www.w3.org/2000/svg">
  <path d="M 58.5 992  A 2.5 2.5 0 0 1 61 989.5 L 69 989.5  A 2.5 2.5 0 0 1 71.5 992 L 71.5 1000  A 2.5 2.5 0 0 1 69 1002.5 L 61 1002.5  A 2.5 2.5 0 0 1 58.5 1000 L 58.5 992  Z " fill-rule="nonzero" fill="#f0f0f0" stroke="none" />
  <path d="M 58.5 992  A 2.5 2.5 0 0 1 61 989.5 L 69 989.5  A 2.5 2.5 0 0 1 71.5 992 L 71.5 1000  A 2.5 2.5 0 0 1 69 1002.5 L 61 1002.5  A 2.5 2.5 0 0 1 58.5 1000 L 58.5 992  Z " stroke-width="1" stroke="#797979" fill="none" />
  <path d="M 61 996  L 64 999  L 69 992  " stroke-width="3" stroke="#797979" fill="none" />
</svg>