<?xml version="1.0" encoding="utf-8"?>
<svg version="1.1" xmlns:xlink="http://www.w3.org/1999/xlink" width="14px" height="14px" viewBox="58 1019  14 14" xmlns="http://www.w3.org/2000/svg">
  <path d="M 58.5 1022  A 2.5 2.5 0 0 1 61 1019.5 L 69 1019.5  A 2.5 2.5 0 0 1 71.5 1022 L 71.5 1030  A 2.5 2.5 0 0 1 69 1032.5 L 61 1032.5  A 2.5 2.5 0 0 1 58.5 1030 L 58.5 1022  Z " fill-rule="nonzero" fill="#f0f0f0" stroke="none" />
  <path d="M 58.5 1022  A 2.5 2.5 0 0 1 61 1019.5 L 69 1019.5  A 2.5 2.5 0 0 1 71.5 1022 L 71.5 1030  A 2.5 2.5 0 0 1 69 1032.5 L 61 1032.5  A 2.5 2.5 0 0 1 58.5 1030 L 58.5 1022  Z " stroke-width="1" stroke="#797979" fill="none" />
</svg>